<svg xmlns="http://www.w3.org/2000/svg" width="137" height="22"><path fill="#333" d="M66.806 10.703c0 5.892-4.87 10.703-10.833 10.703-5.964 0-10.833-4.81-10.833-10.703C45.14 4.811 50.01 0 55.973 0c5.964 0 10.833 4.811 10.833 10.703zm-2.571 0c0-4.487-3.72-8.162-8.262-8.162-4.541 0-8.262 3.675-8.262 8.162 0 4.487 3.72 8.163 8.262 8.163 4.541 0 8.262-3.676 8.262-8.163zm-53.402 8.163c-4.541 0-8.262-3.676-8.262-8.163s3.72-8.162 8.262-8.162c2.298 0 4.322.919 5.854 2.378l1.806-1.784A10.811 10.811 0 0010.833 0C4.87 0 0 4.811 0 10.703c0 5.892 4.87 10.703 10.833 10.703 3.01 0 5.69-1.189 7.66-3.135l-1.806-1.784c-1.532 1.46-3.556 2.379-5.854 2.379zm78.51 0c-4.541 0-8.262-3.676-8.262-8.163s3.72-8.162 8.262-8.162c2.298 0 4.322.919 5.854 2.378l1.806-1.784A10.811 10.811 0 0089.343 0C83.38 0 78.51 4.811 78.51 10.703c0 5.892 4.87 10.703 10.833 10.703 3.01 0 5.69-1.189 7.66-3.135l-1.806-1.784a8.319 8.319 0 01-5.854 2.379zM25.771.59H23.2v20.271h2.571zm48.2 6.33H71.4v13.947h2.571zM40.921.59H38.35v20.271h2.571z"/><path fill="#333" d="M39.665 9.41H24.51v2.54h15.155zm75.665 8.86h-12.31v2.54h12.31zm0-17.68h-12.31v2.54h12.31zM72.657 4.86L68.28.59h8.754zm34.144 6.275c0 1.135-.766 1.838-1.806 1.838-1.039 0-1.805-.65-1.805-1.838V8.54h.711v2.649c0 .757.493 1.135 1.095 1.135.601 0 1.094-.378 1.094-1.135V8.54h.711zm2.189 1.779h.711V8.59h-.711zm1.696-2.324l1.806-2h-.876l-1.86 2 2.024 2.324h.876zm6.504 2.325l-1.258-1.676h-.82v1.675h-.712V8.59h1.587c.875 0 1.477.54 1.477 1.351 0 .595-.328 1.027-.82 1.244l1.312 1.784h-.766zm-2.024-2.325h.875c.493 0 .766-.27.766-.703 0-.432-.273-.702-.766-.702h-.875zm7.228 1.576h-1.97l-.328.703h-.766l1.915-4.379h.219l1.915 4.379h-.766zm-.985-2.379l-.711 1.784h1.477zm4.592 3.127h-.711V8.59h.711zm5.8-4.316v4.379h-.219l-2.68-3.027v2.919h-.712V8.49h.219l2.68 2.973V8.544h.712zm5.149.587h-2.189v1.135h1.642v.594h-1.642v1.352h2.243v.648h-2.954V8.59h2.9z"/></svg>