<svg width="22" height="51" fill="none" xmlns="http://www.w3.org/2000/svg"><path d="M3.646 50.354a.5.5 0 00.708 0l3.182-3.182a.5.5 0 10-.708-.707L4 49.293l-2.828-2.828a.5.5 0 10-.708.707l3.182 3.182zM3.5 0v50h1V0h-1zm12.547 37.56c.648 0 1.16-.24 1.538-.722.374-.485.561-1.128.561-1.929 0-.8-.187-1.434-.561-1.9-.378-.468-.86-.702-1.445-.702-.573 0-1.018.184-1.333.551-.32.368-.588.969-.806 1.802-.192.762-.387 1.275-.586 1.538a.963.963 0 01-.8.39c-.333 0-.606-.131-.821-.395-.218-.267-.327-.677-.327-1.23 0-.56.125-.98.376-1.26.25-.283.574-.425.972-.425h.058v-.82h-.058c-.58 0-1.07.226-1.47.679-.4.449-.6 1.058-.6 1.826 0 .765.185 1.364.556 1.797.368.43.828.644 1.382.644.543 0 .965-.164 1.264-.493.296-.332.552-.915.767-1.748.211-.827.421-1.374.63-1.64a.973.973 0 01.81-.4c.371 0 .676.154.913.463.238.306.357.747.357 1.323s-.117 1.026-.352 1.348c-.234.319-.578.478-1.03.478h-.054v.825h.059zm-1.416-6.206c1.11 0 1.974-.288 2.593-.864.615-.58.922-1.305.922-2.177 0-.87-.229-1.534-.688-1.993a2.736 2.736 0 00-1.704-.79l-.049-.006v.83l.049.005c.436.043.824.218 1.162.528.339.306.508.781.508 1.425 0 .645-.244 1.174-.733 1.587-.491.414-1.178.62-2.06.62h-.371c-.892 0-1.58-.206-2.066-.62a1.992 1.992 0 01-.727-1.587c0-.647.17-1.126.508-1.435.338-.31.726-.483 1.162-.522h.048v-.83l-.048.004c-.674.059-1.24.32-1.7.786-.462.463-.693 1.128-.693 1.997 0 .873.31 1.599.928 2.178.615.576 1.478.865 2.588.865h.37zM18 24.28v-.825h-2.915v-1.533c0-.788-.194-1.39-.581-1.807-.387-.42-.895-.63-1.524-.63-.634 0-1.14.21-1.518.63-.38.417-.571 1.02-.571 1.807v2.358H18zm-3.608-.825h-2.808v-1.533c0-.602.133-1.02.4-1.255.264-.238.595-.356.992-.356.4 0 .737.118 1.01.356.27.234.406.653.406 1.255v1.533zM18 20.065v-.942l-3.384 1.924.103.85L18 20.064zm-3.37-1.718c1.11 0 1.975-.29 2.594-.87.615-.579.922-1.321.922-2.226 0-.908-.307-1.65-.922-2.227-.619-.579-1.483-.869-2.593-.869h-.371c-1.11 0-1.973.29-2.588.87-.619.576-.928 1.318-.928 2.226 0 .908.31 1.652.928 2.231.615.577 1.478.865 2.588.865h.37zm0-.835h-.37c-.886 0-1.572-.207-2.06-.62-.49-.414-.733-.96-.733-1.641 0-.68.244-1.227.732-1.64.489-.417 1.175-.626 2.06-.626h.372c.885 0 1.572.209 2.06.625.489.414.733.96.733 1.641 0 .677-.244 1.224-.733 1.64-.488.414-1.175.62-2.06.62zM18 10.764v-4.4h-.698v3.574H10.89v.826H18zm0-5.371v-4.4h-.698v3.574H10.89v.826H18z" fill="#4D4D4D"/></svg>